<?xml version="1.0" encoding="UTF-8"?>
<svg id="Layer_1" data-name="Layer 1" xmlns="http://www.w3.org/2000/svg" viewBox="0 0 940.99 235.52">
  <defs>
    <style>
      .cls-1 {
        fill: #0b57d0;
      }
    </style>
  </defs>
  <g>
    <path d="m302.3,32.79v23.8h35.16v12.81h-35.16v23.8h39.03v13.05h-52.68V19.74h52.68v13.05h-39.03Z"/>
    <path d="m378.18,61.31c-8.9-13.85-17.8-27.71-26.7-41.56h16.79c6.28,10.23,12.57,20.46,18.85,30.69h.73c6.28-10.23,12.57-20.46,18.85-30.69h16.79c-8.9,13.85-17.8,27.71-26.7,41.56,9.55,14.98,19.09,29.97,28.64,44.95h-16.67c-6.97-11.08-13.94-22.15-20.9-33.23h-.73c-6.97,11.08-13.94,22.15-20.9,33.23h-16.67c9.55-14.98,19.09-29.97,28.64-44.95Z"/>
    <path d="m492.24,103.72c-6.12,2.98-12.73,4.47-19.82,4.47-6.45,0-12.38-1.17-17.82-3.5s-10.17-5.54-14.2-9.61c-4.03-4.07-7.17-8.86-9.42-14.38-2.25-5.52-3.38-11.42-3.38-17.7s1.13-12.16,3.38-17.64c2.25-5.48,5.39-10.27,9.42-14.38,4.03-4.11,8.76-7.33,14.2-9.67,5.44-2.34,11.38-3.5,17.82-3.5s12.28,1.17,17.76,3.5c5.48,2.34,10.23,5.56,14.26,9.67,4.03,4.11,7.17,8.9,9.42,14.38,2.25,5.48,3.38,11.36,3.38,17.64,0,6.85-1.29,13.15-3.87,18.91-2.58,5.76-6.16,10.73-10.75,14.92,2.51,3.77,3.77,5.65,6.28,9.42-4.16,2.75-6.24,4.13-10.39,6.89-2.51-3.77-3.77-5.65-6.28-9.42Zm-17.4-25.86c4.16-2.8,6.24-4.2,10.39-7.01,3.91,5.85,5.87,8.77,9.79,14.62,2.58-2.82,4.61-6.12,6.1-9.91,1.49-3.78,2.23-7.97,2.23-12.57,0-4.83-.81-9.23-2.42-13.17-1.61-3.94-3.81-7.33-6.59-10.15-2.78-2.82-6.06-4.99-9.85-6.52-3.79-1.53-7.81-2.3-12.08-2.3s-8.3.77-12.08,2.3c-3.79,1.53-7.07,3.71-9.85,6.52-2.78,2.82-4.97,6.2-6.59,10.15-1.61,3.95-2.42,8.34-2.42,13.17s.8,9.22,2.42,13.17c1.61,3.95,3.81,7.33,6.59,10.15,2.78,2.82,6.06,5,9.85,6.52,3.78,1.53,7.81,2.3,12.08,2.3,2.18,0,4.29-.22,6.34-.66,2.05-.44,4.01-1.07,5.86-1.87-3.91-5.9-5.87-8.84-9.79-14.74Z"/>
    <path d="m544.08,32.79v23.8h35.16v12.81h-35.16v23.8h39.03v13.05h-52.68V19.74h52.68v13.05h-39.03Z"/>
    <path d="m636.27,108.19c-6.45,0-12.38-1.17-17.82-3.5s-10.17-5.54-14.2-9.61c-4.03-4.07-7.17-8.86-9.42-14.38-2.25-5.52-3.38-11.42-3.38-17.7s1.13-12.16,3.38-17.64c2.25-5.48,5.4-10.27,9.42-14.38,4.03-4.11,8.76-7.33,14.2-9.67,5.44-2.34,11.38-3.5,17.82-3.5s12.28,1.17,17.76,3.5c5.48,2.34,10.23,5.56,14.26,9.67,4.03,4.11,7.17,8.9,9.42,14.38,2.25,5.48,3.38,11.36,3.38,17.64s-1.13,12.19-3.38,17.7c-2.26,5.52-5.4,10.31-9.42,14.38-4.03,4.07-8.78,7.27-14.26,9.61-5.48,2.34-11.4,3.5-17.76,3.5Zm0-13.05c4.27,0,8.29-.76,12.08-2.3,3.79-1.53,7.07-3.71,9.85-6.52,2.78-2.82,4.97-6.2,6.58-10.15,1.61-3.95,2.42-8.34,2.42-13.17s-.81-9.22-2.42-13.17c-1.61-3.95-3.81-7.33-6.58-10.15-2.78-2.82-6.06-4.99-9.85-6.52-3.79-1.53-7.81-2.3-12.08-2.3s-8.3.77-12.08,2.3c-3.79,1.53-7.07,3.71-9.85,6.52-2.78,2.82-4.97,6.2-6.58,10.15-1.61,3.95-2.42,8.34-2.42,13.17s.81,9.22,2.42,13.17c1.61,3.95,3.81,7.33,6.58,10.15,2.78,2.82,6.06,5,9.85,6.52,3.78,1.53,7.81,2.3,12.08,2.3Z"/>
    <path d="m694.27,19.74h16.31c12.81,20.9,25.62,41.81,38.42,62.71h.72c-.29-6.67-.43-10-.72-16.67V19.74h13.53v86.51h-14.26l-40.36-65.85h-.72c.29,6.67.43,10,.72,16.67v49.18h-13.65V19.74Z"/>
    <path d="m288.65,138.4h13.65v86.51h-13.65v-86.51Z"/>
    <path d="m319.7,138.4h16.31c12.81,20.9,25.62,41.81,38.42,62.71h.73c-.29-6.67-.44-10-.73-16.67v-46.04h13.53v86.51h-14.26c-13.45-21.95-26.9-43.9-40.36-65.85h-.73c.29,6.67.44,10,.73,16.67v49.18h-13.65v-86.51Z"/>
    <path d="m423.73,224.91v-73.46h-24.17v-13.05h61.98v13.05h-24.17v73.46h-13.65Z"/>
    <path d="m486.8,151.45v23.8h35.16v12.81h-35.16v23.8h39.03v13.05h-52.68v-86.51h52.68v13.05h-39.03Z"/>
    <path d="m540.81,138.4h30.57c3.95,0,7.63.64,11.06,1.93,3.42,1.29,6.38,3.12,8.88,5.5,2.5,2.38,4.45,5.18,5.86,8.4,1.41,3.22,2.11,6.77,2.11,10.63,0,2.98-.5,5.8-1.51,8.46-1.01,2.66-2.4,5.06-4.17,7.19-1.77,2.14-3.85,3.97-6.22,5.5-2.38,1.53-4.93,2.66-7.67,3.38-.05.24-.07.36-.12.6,7.89,11.4,15.79,22.8,23.68,34.19v.72h-15.95c-7.61-11.24-15.22-22.47-22.84-33.71h-10.03v33.71h-13.65v-86.51Zm30.21,39.99c2.01,0,3.89-.34,5.62-1.03,1.73-.68,3.24-1.63,4.53-2.84,1.29-1.21,2.32-2.64,3.08-4.29.77-1.65,1.15-3.48,1.15-5.5,0-1.61-.3-3.22-.91-4.83-.6-1.61-1.49-3.06-2.66-4.35-1.17-1.29-2.62-2.34-4.35-3.14-1.73-.8-3.73-1.21-5.98-1.21h-17.04v27.19h16.55Z"/>
    <path d="m613.19,138.4h16.31c12.81,20.9,25.62,41.81,38.42,62.71h.72c-.29-6.67-.43-10-.72-16.67v-46.04h13.53v86.51h-14.26l-40.36-65.85h-.72c.29,6.67.43,10,.72,16.67v49.18h-13.65v-86.51Z"/>
    <path d="m724.35,226.84c-3.46,0-6.83-.5-10.09-1.51-3.26-1.01-6.28-2.52-9.06-4.53-2.78-2.01-5.22-4.51-7.31-7.49-2.09-2.98-3.71-6.44-4.83-10.39,5.22-2.13,7.83-3.19,13.05-5.32.56,2.26,1.39,4.37,2.48,6.34,1.09,1.98,2.42,3.69,3.99,5.14,1.57,1.45,3.34,2.6,5.32,3.44,1.97.85,4.17,1.27,6.58,1.27,2.01,0,3.95-.26,5.8-.79,1.85-.52,3.46-1.31,4.83-2.36,1.37-1.05,2.48-2.33,3.32-3.87.85-1.53,1.27-3.3,1.27-5.32,0-1.77-.32-3.38-.97-4.83-.64-1.45-1.65-2.78-3.02-3.99-1.37-1.21-3.18-2.36-5.44-3.44-2.26-1.09-4.95-2.19-8.09-3.32-2.18-.77-3.26-1.16-5.44-1.93-2.34-.8-4.73-1.87-7.19-3.2-2.46-1.33-4.67-2.94-6.65-4.83s-3.58-4.13-4.83-6.71c-1.25-2.58-1.87-5.6-1.87-9.06,0-3.22.67-6.26,1.99-9.12,1.33-2.86,3.2-5.38,5.62-7.55,2.42-2.17,5.3-3.88,8.64-5.13,3.34-1.25,7.03-1.87,11.06-1.87s7.87.58,11.06,1.75c3.18,1.17,5.86,2.64,8.03,4.41,2.17,1.77,3.93,3.73,5.26,5.86,1.33,2.13,2.31,4.13,2.96,5.98-4.93,2.08-7.39,3.12-12.32,5.2-.4-1.21-.99-2.44-1.75-3.69-.76-1.25-1.75-2.36-2.96-3.32-1.21-.97-2.64-1.77-4.29-2.42-1.65-.64-3.56-.97-5.74-.97-1.93,0-3.75.26-5.44.79-1.69.52-3.16,1.27-4.41,2.24-1.25.97-2.24,2.1-2.96,3.38-.72,1.29-1.09,2.7-1.09,4.23,0,3.06,1.27,5.54,3.81,7.43,2.54,1.89,6.26,3.69,11.18,5.38,2.17.77,3.26,1.16,5.44,1.93,3.38,1.13,6.48,2.46,9.3,3.99,2.82,1.53,5.28,3.36,7.37,5.5,2.09,2.13,3.73,4.61,4.89,7.43,1.17,2.82,1.75,6.08,1.75,9.79,0,4.51-.91,8.36-2.72,11.54-1.81,3.18-4.13,5.82-6.95,7.91-2.82,2.1-5.96,3.62-9.42,4.59-3.46.97-6.85,1.45-10.15,1.45Z"/>
    <path d="m767,138.4h13.65v35.88h39.99v-35.88h13.65v86.51h-13.65v-37.82h-39.99v37.82h-13.65v-86.51Z"/>
    <path d="m851.7,138.4h13.65v86.51h-13.65v-86.51Z"/>
    <path d="m882.75,224.91v-86.51h29.97c3.87,0,7.51.64,10.93,1.93,3.42,1.29,6.42,3.1,9,5.44,2.58,2.34,4.61,5.14,6.1,8.4,1.49,3.26,2.24,6.87,2.24,10.81s-.75,7.43-2.24,10.69c-1.49,3.26-3.53,6.06-6.1,8.4-2.58,2.34-5.58,4.15-9,5.44-3.42,1.29-7.07,1.93-10.93,1.93h-16.31v33.47h-13.65Zm30.33-46.52c2.25,0,4.27-.38,6.04-1.15,1.77-.76,3.26-1.79,4.47-3.08,1.21-1.29,2.13-2.74,2.78-4.35.64-1.61.97-3.22.97-4.83,0-1.69-.32-3.34-.97-4.95-.64-1.61-1.57-3.04-2.78-4.29-1.21-1.25-2.7-2.28-4.47-3.08-1.77-.8-3.79-1.21-6.04-1.21h-16.67v26.94h16.67Z"/>
  </g>
  <g>
    <path class="cls-1" d="m250.03,234.61h-33.69l-97.33-32.37-22.81,33.18h-34.5l.76-2.89L217.52,1.38c.56-.75,2.94-1.38,3.69-1.38h27.6c.09,0,1.22,1.13,1.22,1.22v233.39Zm-31.66-71.44V54.39l-60.07,89.29,60.07,19.49Zm0,24.35l-73.49-23.61-1.05.21-11.52,18.12,86.06,28.02v-22.73Z"/>
    <path class="cls-1" d="m29.63,1.62c.29.01,1.25-.95,2.03-.49l99.37,33.01L152.62.81h35.72c-3.62,7.58-8.91,14.65-13.62,21.69C127.57,93.02,79.71,163.05,32.84,233.76c-1.53,2.36-2.94,1.66-4.84,1.66H0V1.62c9.85.27,19.78-.36,29.63,0Zm2.03,24.35v22.73l72.7,23.51c.98.08,1.4-.59,2.01-1.16,3.7-3.41,7.86-13.19,11.34-17.47L31.66,25.98Zm0,47.08v108.78l59.24-88.84-59.24-19.94Z"/>
  </g>
</svg>